<?xml version="1.0" encoding="UTF-8" standalone="no"?>
<!-- Generator: Adobe Illustrator 13.0.2, SVG Export Plug-In . SVG Version: 6.00 Build 14948)  -->
<svg
   xmlns:dc="http://purl.org/dc/elements/1.1/"
   xmlns:cc="http://creativecommons.org/ns#"
   xmlns:rdf="http://www.w3.org/1999/02/22-rdf-syntax-ns#"
   xmlns:svg="http://www.w3.org/2000/svg"
   xmlns="http://www.w3.org/2000/svg"
   xmlns:xlink="http://www.w3.org/1999/xlink"
   xmlns:sodipodi="http://sodipodi.sourceforge.net/DTD/sodipodi-0.dtd"
   xmlns:inkscape="http://www.inkscape.org/namespaces/inkscape"
   version="1.0"
   id="Layer_1"
   x="0px"
   y="0px"
   width="453.54327"
   height="35.433022"
   viewBox="0 0 36.845 43.541"
   enable-background="new 0 0 36.845 43.541"
   xml:space="preserve"
   sodipodi:version="0.32"
   inkscape:version="0.46"
   sodipodi:docname="lsr_logo_foot_full_2.svg"
   inkscape:output_extension="org.inkscape.output.svg.inkscape"><metadata
   id="metadata12"><rdf:RDF><cc:Work
       rdf:about=""><dc:format>image/svg+xml</dc:format><dc:type
         rdf:resource="http://purl.org/dc/dcmitype/StillImage" /></cc:Work></rdf:RDF></metadata><defs
   id="defs10"><clipPath
     id="SVGID_12_">
				<rect
   y="0"
   x="0"
   height="28.35"
   width="53.050999"
   id="use2551" />
			</clipPath><clipPath
     id="SVGID_10_">
			<use
   xlink:href="#SVGID_9_"
   overflow="visible"
   id="use2543"
   style="overflow:visible"
   x="0"
   y="0"
   width="53.050999"
   height="28.35" />
		</clipPath><clipPath
     id="SVGID_8_">
		<rect
   x="0"
   id="use2535"
   y="0.029999999"
   width="53.049999"
   height="28.32" />
	</clipPath><inkscape:perspective
     sodipodi:type="inkscape:persp3d"
     inkscape:vp_x="0 : 21.7705 : 1"
     inkscape:vp_y="0 : 1000 : 0"
     inkscape:vp_z="36.845001 : 21.7705 : 1"
     inkscape:persp3d-origin="18.422501 : 14.513667 : 1"
     id="perspective14" /><inkscape:perspective
     id="perspective2394"
     inkscape:persp3d-origin="372.04724 : 350.78739 : 1"
     inkscape:vp_z="744.09448 : 526.18109 : 1"
     inkscape:vp_y="0 : 1000 : 0"
     inkscape:vp_x="0 : 526.18109 : 1"
     sodipodi:type="inkscape:persp3d" /><inkscape:perspective
     id="perspective2796"
     inkscape:persp3d-origin="26.525499 : 9.4500001 : 1"
     inkscape:vp_z="53.050999 : 14.175 : 1"
     inkscape:vp_y="0 : 1000 : 0"
     inkscape:vp_x="0 : 14.175 : 1"
     sodipodi:type="inkscape:persp3d" /><inkscape:perspective
     id="perspective2941"
     inkscape:persp3d-origin="26.525499 : 9.4500001 : 1"
     inkscape:vp_z="53.050999 : 14.175 : 1"
     inkscape:vp_y="0 : 1000 : 0"
     inkscape:vp_x="0 : 14.175 : 1"
     sodipodi:type="inkscape:persp3d" /></defs><sodipodi:namedview
   inkscape:window-height="988"
   inkscape:window-width="1680"
   inkscape:pageshadow="2"
   inkscape:pageopacity="0.0"
   guidetolerance="10.0"
   gridtolerance="10.0"
   objecttolerance="10.0"
   borderopacity="1.0"
   bordercolor="#666666"
   pagecolor="#ffffff"
   id="base"
   showgrid="false"
   inkscape:zoom="2.5600001"
   inkscape:cx="245.79368"
   inkscape:cy="19.987031"
   inkscape:window-x="1680"
   inkscape:window-y="24"
   inkscape:current-layer="g3"
   borderlayer="true"
   units="mm"
   showborder="true" />
<g
   id="g3"
   transform="translate(69.646334,-2.8029865)">
	<g
   id="g3169"
   transform="matrix(0.9259204,0,0,0.7772123,176.02415,10.28192)"><path
     style="fill:#ffffff;fill-opacity:1;fill-rule:evenodd;stroke:none;stroke-width:1px;stroke-linecap:butt;stroke-linejoin:miter;stroke-opacity:1"
     d="M 49.414121,-9.6227668 L 29.112359,-9.6227678 L 41.398808,3.774126 C 41.398808,-1.4399848 41.169102,-3.3717488 42.939978,-6.1071971 C 44.691437,-8.8126518 48.010704,-9.6227668 49.414121,-9.6227668 z"
     id="path3167"
     sodipodi:nodetypes="ccczc" /><path
     sodipodi:nodetypes="ccczc"
     id="path3165"
     d="M -12.572374,-9.6227668 L 7.729388,-9.6227678 L -4.5570606,3.774129 C -4.5570606,-1.4399848 -4.3273546,-3.3717488 -6.0982306,-6.1071969 C -7.8496896,-8.8126518 -11.168957,-9.6227668 -12.572374,-9.6227668 z"
     style="fill:#ffffff;fill-opacity:1;fill-rule:evenodd;stroke:none;stroke-width:1px;stroke-linecap:butt;stroke-linejoin:miter;stroke-opacity:1" /><rect
     rx="8.4527607"
     ry="8.9213047"
     y="-9.6227674"
     x="-4.5304384"
     height="55.330685"
     width="46.428921"
     id="rect2387"
     style="fill:#ffffff;fill-opacity:1;stroke:none;stroke-width:2.70000005;stroke-miterlimit:4;stroke-dasharray:none;stroke-opacity:1" /></g>
	<g
   id="g3159"
   transform="matrix(0.8033834,0,0,0.8088728,182.93622,6.9611148)"><path
     style="fill:#0065bd"
     id="path5"
     d="M 10.461338,-4.1633363e-17 C 9.8543377,0.494 7.3923377,2.169 5.2763377,3.261 C 3.0113377,4.431 0.95833773,5.234 -0.37466227,5.52 C 0.95833773,5.805 3.0113377,6.603 5.2763377,7.772 C 7.3923377,8.865 8.7643377,9.87 10.461338,11.034 L 10.461338,7.682 L 32.140338,7.682 L 32.140338,25.024 L 10.461338,25.024 L 10.461338,29.361 L 36.470338,29.361 L 36.470338,25.024 L 36.470338,3.345 L 32.140338,3.345 L 32.140338,3.351 L 10.461338,3.351 L 10.461338,-4.1633363e-17 L 10.461338,-4.1633363e-17 z" /><path
     style="fill:#8c0028"
     id="path7"
     d="M -0.37466227,14.187 L -0.37466227,18.518 L -0.37466227,35.859 L -0.37466227,40.196 L 25.634338,40.196 L 25.634338,43.541 C 26.242338,43.048 28.709338,41.371 30.825338,40.279 C 33.089338,39.11 35.138338,38.312 36.470338,38.027 C 35.139338,37.742 33.089338,36.943 30.825338,35.775 C 28.710338,34.682 27.331338,33.677 25.634338,32.513 L 25.634338,35.859 L 3.9623377,35.859 L 3.9623377,18.518 L 25.634338,18.518 L 25.634338,14.187 L 3.9623377,14.187 L -0.37466227,14.187 L -0.37466227,14.187 z" /></g>
<g
   clip-path="url(#SVGID_8_)"
   id="g2537"
   transform="matrix(1.2288238,0,0,1.2288238,-318.28958,5.1879358)">
		<defs
   id="defs2539">
			<rect
   id="SVGID_9_"
   width="53.050999"
   height="28.35"
   x="0"
   y="0" />
		</defs>
		<clipPath
   id="clipPath2573">
			<use
   xlink:href="#SVGID_9_"
   overflow="visible"
   id="use2575"
   style="overflow:visible"
   x="0"
   y="0"
   width="53.050999"
   height="28.35" />
		</clipPath>
		
	</g><g
   id="g2944"
   transform="matrix(1.1546449,0,0,1.1451624,61.410714,-66.359055)"
   style="fill:#0065bd;fill-opacity:1"><g
     id="g2908"
     transform="translate(-327.5766,65.63252)"
     style="fill:#0065bd;fill-opacity:1;stroke:none;stroke-opacity:1">
	<defs
   id="defs2910">
		<rect
   height="28.32"
   width="53.049999"
   y="0.029999999"
   id="SVGID_7_"
   x="0" />
	</defs>
	<clipPath
   id="clipPath2965">
		<use
   id="use2914"
   overflow="visible"
   xlink:href="#SVGID_7_"
   style="overflow:visible"
   x="0"
   y="0"
   width="36.845001"
   height="43.541" />
	</clipPath>
	<path
   style="fill:#0065bd;fill-opacity:1;fill-rule:evenodd;stroke:none;stroke-width:1px;stroke-linecap:butt;stroke-linejoin:miter;stroke-opacity:1"
   d="M -1.0245644,-0.48600566 L -1.0245644,5.0686319 L 3.6814843,5.0686319 L 3.6814843,27.742707 L 9.2612891,27.742707 L 9.2612891,5.0686319 L 14.038122,5.0686319 L 14.038122,27.742707 L 30.429046,27.742707 L 30.429046,5.3650251 L 35.350144,5.3650251 L 35.350144,27.742707 L 41.155835,27.742707 L 41.155835,5.3650251 L 46.155856,5.3650251 L 46.155856,27.742707 L 51.961544,27.742707 L 51.961544,-0.48600566 L 24.770331,-0.48600566 L 24.770331,22.116706 L 19.773034,22.116706 L 19.773034,-0.48600566 L -1.0245644,-0.48600566 z"
   id="path3271"
   sodipodi:nodetypes="ccccccccccccccccccccccc" />
<path
   style="fill:none;fill-rule:evenodd;stroke:#787878;stroke-width:0.87351548999999984px;stroke-linecap:butt;stroke-linejoin:miter;stroke-opacity:1"
   d="M -0.96853756,-4.5214004 L 458.15046,-4.5214004"
   id="path3275"
   sodipodi:nodetypes="cc" /></g></g>
</g>
</svg>